# xmcd
#
# Track frame offsets:
#	150
#	13636
#	25656
#	37744
#	49516
#	63977
#	76413
#	87665
#	102042
#	115175
#
# Disc length: 1704 seconds
#
# Revision: 0
# Processed by: cddbd v1.5.2PL0 Copyright (c) Steve Scherf et al.
# Submitted via: dBpowerAMP V4.0
#
DISCID=6b06a60a
DTITLE=Perry Como - Just Out Of Reach
DYEAR=1975
DGENRE=Easy Listening
TTITLE0=Let's Do It Again
TTITLE1=Then You Can Tell Me Goodbye
TTITLE2=Here, There And Everywhere
TTITLE3=Let It Be Love
TTITLE4=The Grass Keeps Right On Growin'
TTITLE5=Just Out Of Reach
TTITLE6=Let Me Call You Baby Tonight
TTITLE7=Loving Her Was Easier (Than Anything I'll Ever Do Again)
TTITLE8=Make Love To Life
TTITLE9=Love Put A Song In My Heart
EXTD=
EXTT0=
EXTT1=
EXTT2=
EXTT3=
EXTT4=
EXTT5=
EXTT6=
EXTT7=
EXTT8=
EXTT9=
PLAYORDER=
